# Blender 3.4.1
# www.blender.org
mtllib Shitok.mtl
o Shitok
v -0.565294 1.132962 0.436206
v 0.565294 1.132962 0.436206
v -0.565294 2.892883 0.436206
v 0.565294 2.892883 0.436206
v -0.565294 1.132962 0.118788
v 0.565294 1.132962 0.118788
v -0.565294 2.892883 0.118788
v 0.565294 2.892883 0.118788
v -0.565294 2.837440 0.436206
v -0.565294 1.188405 0.436206
v 0.565294 1.188406 0.436206
v 0.565294 2.837440 0.436206
v -0.565294 2.837440 0.118788
v -0.565294 1.188405 0.118788
v 0.565294 1.188406 0.118788
v 0.565294 2.837440 0.118788
v -0.505796 1.132962 0.436206
v 0.505796 1.132962 0.436206
v 0.505796 2.892883 0.436206
v -0.505796 2.892883 0.436206
v -0.505796 1.132962 0.118788
v 0.505796 1.132962 0.118788
v 0.505796 2.892883 0.118788
v -0.505796 2.892883 0.118788
v 0.505796 1.188405 0.118788
v -0.505796 1.188405 0.118788
v 0.505796 2.837440 0.118788
v -0.505796 2.837440 0.118788
v -0.505796 1.188405 0.436206
v 0.505796 1.188405 0.436206
v -0.505796 2.837440 0.436206
v 0.505796 2.837440 0.436206
v -0.505796 1.188405 0.421979
v 0.505796 1.188405 0.421979
v -0.505796 2.837440 0.421979
v 0.505796 2.837440 0.421979
v -0.493497 1.200433 0.421979
v 0.493497 1.200433 0.421979
v -0.493497 2.825412 0.421979
v 0.493497 2.825412 0.421979
v -0.493497 1.200433 0.441770
v 0.493497 1.200433 0.441770
v -0.493497 2.825412 0.441770
v 0.493497 2.825412 0.441770
v -0.339954 1.745253 0.441770
v 0.339954 1.745253 0.441770
v -0.339954 2.280592 0.441770
v 0.339954 2.280592 0.441770
v 0.142838 1.573458 0.133750
v 0.142838 1.356561 0.133750
v 0.142838 1.573458 -0.159388
v 0.142838 1.356561 -0.159388
v -0.142838 1.573458 -0.159388
v -0.142838 1.356561 -0.159388
v -0.142838 1.573458 0.126289
v -0.142838 1.356561 0.126289
v 0.109631 1.573458 0.136052
v 0.109631 1.356561 0.136052
v 0.109631 1.573458 -0.125747
v 0.109631 1.356561 -0.125747
v -0.109631 1.573458 -0.125747
v -0.109631 1.356561 -0.125747
v -0.109631 1.573458 0.130326
v -0.109631 1.356561 0.130326
v 0.142838 2.612723 0.133750
v 0.142838 2.395827 0.133750
v 0.142838 2.612723 -0.159388
v 0.142838 2.395827 -0.159388
v -0.142838 2.612723 -0.159388
v -0.142838 2.395827 -0.159388
v -0.142838 2.612723 0.126289
v -0.142838 2.395827 0.126289
v 0.109631 2.612723 0.136052
v 0.109631 2.395827 0.136052
v 0.109631 2.612723 -0.125747
v 0.109631 2.395827 -0.125747
v -0.109631 2.612723 -0.125747
v -0.109631 2.395827 -0.125747
v -0.109631 2.612723 0.130326
v -0.109631 2.395827 0.130326
v -0.106015 -0.003918 0.106015
v -0.106015 2.953156 0.106015
v -0.106015 -0.003918 -0.106015
v -0.106015 2.953156 -0.106015
v 0.106015 -0.003918 0.106015
v 0.106015 2.953156 0.106015
v 0.106015 -0.003918 -0.106015
v 0.106015 2.953156 -0.106015
vn -0.0000 -0.0000 1.0000
vn -0.0000 -0.0000 -1.0000
vn 1.0000 -0.0000 -0.0000
vn -1.0000 -0.0000 -0.0000
vn -0.0000 1.0000 -0.0000
vn -0.0000 -1.0000 -0.0000
vn -0.0692 -0.0000 -0.9976
vn 0.1207 -0.0000 -0.9927
vt 0.000070 0.000070
vt 0.266492 0.292443
vt 0.009660 0.707557
vt 0.276082 0.999931
vt 0.043412 0.166131
vt 0.240486 0.309568
vt 0.035665 0.690432
vt 0.232740 0.833869
vt 0.000070 0.700677
vt 0.013042 0.077439
vt 0.276082 0.299324
vt 0.263109 0.922561
vt 0.038596 0.693837
vt 0.050116 0.161988
vt 0.237555 0.306163
vt 0.226035 0.838012
vt 0.031214 0.075336
vt 0.261557 0.280928
vt 0.244937 0.924664
vt 0.014595 0.719071
vt 0.036813 0.174507
vt 0.243671 0.312319
vt 0.239338 0.825493
vt 0.032481 0.687681
vt 0.264744 0.303388
vt 0.039186 0.202867
vt 0.236965 0.797133
vt 0.011407 0.696612
vt 0.040644 0.097228
vt 0.247990 0.291811
vt 0.028162 0.708189
vt 0.235508 0.902772
vt 0.072346 0.136513
vt 0.200926 0.302195
vt 0.075225 0.697805
vt 0.203805 0.863487
vt 0.105074 0.179475
vt 0.152199 0.314100
vt 0.123952 0.685900
vt 0.171078 0.820526
vt 0.136215 0.219293
vt 0.105980 0.324897
vt 0.170171 0.675103
vt 0.139936 0.780707
vt 0.153417 0.359019
vt 0.925047 0.058501
vt 0.130822 0.408949
vt 0.050777 0.058501
vt 0.145330 0.591051
vt 0.925047 0.945109
vt 0.122735 0.640981
vt 0.050777 0.945109
vt 0.000000 0.000000
vt 1.000000 0.000000
vt 0.000000 1.000000
vt 1.000000 1.000000
vt 0.000000 1.000000
vt 1.000000 1.000000
vt 0.000000 1.000000
vt 1.000000 1.000000
vt 0.000000 0.000000
vt 1.000000 0.000000
vt 0.000000 1.000000
vt 1.000000 1.000000
vt 0.000000 1.000000
vt 1.000000 1.000000
vt 0.000000 1.000000
vt 1.000000 1.000000
vt 0.000000 0.000000
vt 1.000000 0.000000
vt 0.000000 1.000000
vt 1.000000 1.000000
vt 0.000000 1.000000
vt 1.000000 1.000000
vt 0.000000 1.000000
vt 1.000000 1.000000
vt 0.000000 0.000000
vt 1.000000 0.000000
vt 0.000000 1.000000
vt 1.000000 1.000000
vt 0.000000 1.000000
vt 1.000000 1.000000
vt 0.000000 1.000000
vt 1.000000 1.000000
vt 0.375000 0.000000
vt 0.375000 1.000000
vt 0.125000 0.750000
vt 0.625000 0.000000
vt 0.625000 1.000000
vt 0.875000 0.750000
vt 0.375000 0.250000
vt 0.125000 0.500000
vt 0.625000 0.250000
vt 0.875000 0.500000
vt 0.375000 0.750000
vt 0.625000 0.750000
vt 0.375000 0.500000
vt 0.625000 0.500000
s 0
usemtl Shitok
f 32/32/1 12/12/1 4/4/1 19/19/1
f 27/27/2 23/23/2 8/8/2 16/16/2
f 12/12/3 16/16/3 8/8/3 4/4/3
f 10/10/4 14/14/4 5/5/4 1/1/4
f 20/20/5 24/24/5 7/7/5 3/3/5
f 18/18/6 22/22/6 6/6/6 2/2/6
f 3/3/4 7/7/4 13/13/4 9/9/4
f 9/9/4 13/13/4 14/14/4 10/10/4
f 2/2/3 6/6/3 15/15/3 11/11/3
f 11/11/3 15/15/3 16/16/3 12/12/3
f 22/22/2 25/25/2 15/15/2 6/6/2
f 25/25/2 27/27/2 16/16/2 15/15/2
f 18/18/1 2/2/1 11/11/1 30/30/1
f 30/30/1 11/11/1 12/12/1 32/32/1
f 10/10/1 29/29/1 31/31/1 9/9/1
f 29/29/3 33/33/3 35/35/3 31/31/3
f 1/1/1 17/17/1 29/29/1 10/10/1
f 17/17/1 18/18/1 30/30/1 29/29/1
f 14/14/2 13/13/2 28/28/2 26/26/2
f 26/26/2 28/28/2 27/27/2 25/25/2
f 5/5/2 14/14/2 26/26/2 21/21/2
f 21/21/2 26/26/2 25/25/2 22/22/2
f 1/1/6 5/5/6 21/21/6 17/17/6
f 17/17/6 21/21/6 22/22/6 18/18/6
f 4/4/5 8/8/5 23/23/5 19/19/5
f 19/19/5 23/23/5 24/24/5 20/20/5
f 13/13/2 7/7/2 24/24/2 28/28/2
f 28/28/2 24/24/2 23/23/2 27/27/2
f 9/9/1 31/31/1 20/20/1 3/3/1
f 31/31/1 32/32/1 19/19/1 20/20/1
f 32/32/4 36/36/4 34/34/4 30/30/4
f 31/31/6 35/35/6 36/36/6 32/32/6
f 30/30/5 34/34/5 33/33/5 29/29/5
f 33/33/1 37/37/1 39/39/1 35/35/1
f 34/34/1 38/38/1 37/37/1 33/33/1
f 36/36/1 40/40/1 38/38/1 34/34/1
f 35/35/1 39/39/1 40/40/1 36/36/1
f 38/38/6 42/42/6 41/41/6 37/37/6
f 40/40/3 44/44/3 42/42/3 38/38/3
f 39/39/5 43/43/5 44/44/5 40/40/5
f 37/37/4 41/41/4 43/43/4 39/39/4
f 44/44/1 48/51/1 46/47/1 42/42/1
f 43/43/1 47/49/1 48/51/1 44/44/1
f 41/41/1 45/45/1 47/49/1 43/43/1
f 42/42/1 46/47/1 45/45/1 41/41/1
f 46/48/1 48/52/1 47/50/1 45/46/1
f 49/53/4 51/55/4 52/56/4 50/54/4
f 51/55/1 53/57/1 54/58/1 52/56/1
f 53/57/3 55/59/3 56/60/3 54/58/3
f 57/61/3 58/62/3 60/64/3 59/63/3
f 59/63/2 60/64/2 62/66/2 61/65/2
f 61/65/4 62/66/4 64/68/4 63/67/4
f 49/53/7 50/54/7 58/62/7 57/61/7
f 54/58/5 56/60/5 64/68/5 62/66/5
f 53/57/6 51/55/6 59/63/6 61/65/6
f 50/54/5 52/56/5 60/64/5 58/62/5
f 51/55/6 49/53/6 57/61/6 59/63/6
f 55/59/6 53/57/6 61/65/6 63/67/6
f 56/60/8 55/59/8 63/67/8 64/68/8
f 52/56/5 54/58/5 62/66/5 60/64/5
f 65/69/4 67/71/4 68/72/4 66/70/4
f 67/71/1 69/73/1 70/74/1 68/72/1
f 69/73/3 71/75/3 72/76/3 70/74/3
f 73/77/3 74/78/3 76/80/3 75/79/3
f 75/79/2 76/80/2 78/82/2 77/81/2
f 77/81/4 78/82/4 80/84/4 79/83/4
f 65/69/7 66/70/7 74/78/7 73/77/7
f 70/74/5 72/76/5 80/84/5 78/82/5
f 69/73/6 67/71/6 75/79/6 77/81/6
f 66/70/5 68/72/5 76/80/5 74/78/5
f 67/71/6 65/69/6 73/77/6 75/79/6
f 71/75/6 69/73/6 77/81/6 79/83/6
f 72/76/8 71/75/8 79/83/8 80/84/8
f 68/72/5 70/74/5 78/82/5 76/80/5
usemtl Mat_Shitok_tree
f 81/85/4 82/88/4 84/93/4 83/91/4
f 83/91/2 84/93/2 88/98/2 87/97/2
f 87/97/3 88/98/3 86/96/3 85/95/3
f 85/95/1 86/96/1 82/89/1 81/86/1
f 83/92/6 87/97/6 85/95/6 81/87/6
f 88/98/5 84/94/5 82/90/5 86/96/5
o Плоскость
v 0.049904 1.998132 0.444053
v 0.111370 1.972458 0.444053
v -0.091814 2.249925 0.444053
v 0.012784 2.250609 0.444053
v 0.026006 2.040592 0.444053
v 0.094746 2.019363 0.444053
v -0.118514 2.062487 0.444053
v -0.136251 2.110424 0.444053
v -0.062488 2.078698 0.444053
v -0.038951 2.032084 0.444053
v -0.043205 1.851622 0.444053
v -0.010197 1.855108 0.444053
v -0.000907 1.770844 0.444053
v -0.000464 1.770891 0.444053
v 0.026431 1.890024 0.444053
v -0.094513 1.874007 0.444053
vn -0.0000 -0.0000 1.0000
vt 0.000000 0.000000
vt 1.000000 0.000000
vt 0.000000 1.000000
vt 1.000000 1.000000
vt 0.000000 0.168631
vt 1.000000 0.168632
vt 0.000000 0.000000
vt 0.000000 0.168631
vt 0.000000 0.168631
vt 0.000000 0.000000
vt 0.000000 0.000000
vt 0.000000 0.000000
vt 0.000000 0.000000
vt 0.000000 0.000000
vt 0.000000 0.000000
vt 0.000000 0.000000
s 0
usemtl Shitok_Elekt
f 93/103/9 94/104/9 92/102/9 91/101/9
f 89/99/9 90/100/9 94/104/9 93/103/9
f 98/108/9 97/107/9 96/106/9 95/105/9
f 89/99/9 93/103/9 97/107/9 98/108/9
f 98/108/9 95/105/9 99/109/9 100/110/9
f 100/110/9 99/109/9 101/111/9 102/112/9
f 100/110/9 102/112/9 103/113/9
f 101/111/9 99/109/9 104/114/9
